<svg width="100" height="32" viewBox="0 0 100 32" fill="none" xmlns="http://www.w3.org/2000/svg">
<path d="M14.7059 2.24309C15.3065 2.24309 15.8865 2.40772 16.4043 2.69582L25.4556 7.88167C26.512 8.47846 27.154 9.61029 27.154 10.8039V21.1961C27.154 22.3897 26.512 23.5215 25.4556 24.1183L16.4043 29.3042C15.8865 29.5923 15.3065 29.7569 14.7059 29.7569C14.1052 29.7569 13.5252 29.5923 13.0074 29.3042L3.95608 24.1183C2.89975 23.5215 2.25766 22.3897 2.25766 21.1961V10.8039C2.25766 9.61029 2.89975 8.47846 3.95608 7.88167L13.0074 2.69582C13.5252 2.40772 14.1052 2.24309 14.7059 2.24309ZM14.7059 0C13.7324 0 12.7589 0.246945 11.8682 0.761415L2.83761 5.94727C1.07705 6.95563 0 8.80772 0 10.8039V21.1961C0 23.2129 1.07705 25.065 2.83761 26.0527L11.889 31.2386C12.7589 31.7325 13.7324 32 14.7266 32C15.7001 32 16.6735 31.7531 17.5642 31.2386L26.6155 26.0527C28.3554 25.0444 29.4531 23.1923 29.4531 21.1961V10.8039C29.4531 8.78714 28.3761 6.93505 26.6155 5.94727L17.5227 0.761415C16.6528 0.246945 15.6793 0 14.7059 0ZM23.7572 9.5074L15.8243 4.95949C15.4722 4.7537 15.0787 4.6508 14.6851 4.6508C14.2916 4.6508 13.8981 4.7537 13.546 4.95949L5.6545 9.5074C4.95028 9.91897 4.51532 10.6598 4.51532 11.4624V21.8547L6.77298 20.5376V11.4624L14.7059 6.91447L22.618 11.4624V20.5376L14.7059 25.0855V27.6785L23.7572 22.8836C24.5857 22.4514 24.8964 21.5254 24.8964 20.5376V11.4624C24.8757 10.6598 24.4407 9.91897 23.7572 9.5074ZM18.1027 17.9447L14.7059 19.8997L11.309 17.9447V14.0553L14.7059 12.1003L18.1027 14.0553L20.3604 12.7588L14.7059 9.5074L9.05135 12.7588V19.2412L14.7059 22.4926L20.3604 19.2412L18.1027 17.9447Z" fill="url(#paint0_linear)"/>
<path d="M63.5045 9.65144H57.5186C55.0331 9.65144 53.0032 11.6682 53.0032 14.1376V17.8418C53.0032 20.3112 55.0331 22.328 57.5186 22.328H63.5045C65.99 22.328 68.0198 20.3112 68.0198 17.8418V14.1376C68.0198 11.6682 65.99 9.65144 63.5045 9.65144ZM65.3479 17.8418C65.3479 19.0765 64.333 20.0849 63.0902 20.0849H57.8914C56.6486 20.0849 55.6337 19.0765 55.6337 17.8418V14.1376C55.6337 12.9029 56.6486 11.8945 57.8914 11.8945H63.0902C64.333 11.8945 65.3479 12.9029 65.3479 14.1376V17.8418ZM95.5052 9.65144H89.8507C87.3652 9.65144 85.3354 11.6682 85.3354 14.1376V22.328H87.9866V18.9736H97.3487V22.3485H99.9998V14.1582C100.021 11.6682 97.9907 9.65144 95.5052 9.65144ZM87.9866 16.7305V14.1582C87.9866 12.9235 89.0015 11.9151 90.2443 11.9151H95.091C96.3337 11.9151 97.3487 12.9235 97.3487 14.1582V16.7305H87.9866ZM38.3388 14.1582V17.8624C38.3388 19.0971 39.3537 20.1055 40.5965 20.1055H45.7953C47.0381 20.1055 48.053 19.0971 48.053 17.8624H50.7042C50.7042 20.3318 48.6743 22.3485 46.1888 22.3485H40.2029C37.7174 22.3485 35.6876 20.3318 35.6876 17.8624V14.1582C35.6876 11.6887 37.7174 9.67202 40.2029 9.67202H46.1888C48.6743 9.67202 50.7042 11.6887 50.7042 14.1582H48.053C48.053 12.9235 47.0381 11.9151 45.7953 11.9151H40.5965C39.3537 11.8945 38.3388 12.9029 38.3388 14.1582ZM69.5525 9.65144H83.782V11.8945H77.9825V22.3485H75.3313V11.8945H69.5318V9.65144H69.5525Z" fill="white"/>
<defs>
<linearGradient id="paint0_linear" x1="5.83079" y1="4.00801" x2="22.7067" y2="29.5032" gradientUnits="userSpaceOnUse">
<stop stop-color="#2CDEB8"/>
<stop offset="1" stop-color="#2CDEB8"/>
</linearGradient>
</defs>
</svg>
